# xmcd
# 
# Track frame offsets:
#     150
#     3457
#     20512
#     21820
#     33630
#     51700
#     81250
#     107340
#     130030
#     131252
#     165070
#     222577
#     224160
#     235592
#     255465
#     258547
#     272182
#     295822
#     317310
# 
# Disc length: 4571
# 
# Revision: 7
# Processed by: cddbd v1.5.2PL0 Copyright (c) Steve Scherf et al.
# Submitted via: fre:ac v1.0.31
# 
DISCID=0b11d913
DTITLE=Joe Cocker - Mad Dogs and Englishmen
DYEAR=1999
DGENRE=Rock/Pop
TTITLE0=Introduction 1
TTITLE1=Honky Tonk Women
TTITLE2=Introduction 2
TTITLE3=Sticks and Stones
TTITLE4=Cry Me a River
TTITLE5=Bird on the Wire
TTITLE6=Feelin' Alright
TTITLE7=Superstar
TTITLE8=Introduction 3
TTITLE9=Let's Go Get Stoned
TTITLE10=Blue Medley: I'll Drown in My Own Tears\\When Something Is Wrong with My Baby\\I've Been Loving You Too Long
TTITLE11=Introduction 4
TTITLE12=Girl from the North Country
TTITLE13=Give Peace a Chance
TTITLE14=Introduction 5
TTITLE15=She Came In thru the Bathroom Window
TTITLE16=Space Captain
TTITLE17=The Letter
TTITLE18=Delta Lady
EXTD=
EXTT0=
EXTT1=
EXTT2=
EXTT3=
EXTT4=
EXTT5=
EXTT6=
EXTT7=
EXTT8=
EXTT9=
EXTT10=
EXTT11=
EXTT12=
EXTT13=
EXTT14=
EXTT15=
EXTT16=
EXTT17=
EXTT18=
PLAYORDER=
